<?xml version="1.0" standalone="no"?>
<!DOCTYPE svg PUBLIC "-//W3C//DTD SVG 1.1//EN"
  "http://www.w3.org/Graphics/SVG/1.1/DTD/svg11.dtd">
<svg version="1.1" xmlns="http://www.w3.org/2000/svg" width="1792" height="1063" viewBox="-992 -32 1792 1063" id="ccdiagram"><defs><style type="text/css">@import url(&#x27;https://fonts.googleapis.com/css?family=Open+Sans:400,700&#x27;);</style></defs><g>0<g pointer-events=""></g>0<g pointer-events=""></g><g pointer-events="none"></g><g pointer-events=""><g><g cursor="cell"><line x1="-32" y1="352" x2="86" y2="283" stroke="red" stroke-width="8" opacity="0"></line><line x1="-32" y1="352" x2="86" y2="283" stroke="#000000" stroke-width="2" stroke-linecap="round"></line><polygon points="96 278, 70 283, 84 285, 87 292, 96 278" stroke-linejoin="round" fill="#000000" stroke="#000000" stroke-width="1"></polygon></g></g><g><g cursor="cell"><line x1="-352" y1="611" x2="-432" y2="657" stroke="red" stroke-width="8" opacity="0"></line><line x1="-352" y1="611" x2="-432" y2="657" stroke="#000000" stroke-width="2" stroke-linecap="round"></line></g></g><g><g cursor="cell"><line x1="96" y1="426" x2="214" y2="357" stroke="red" stroke-width="8" opacity="0"></line><line x1="96" y1="426" x2="214" y2="357" stroke="#000000" stroke-width="2" stroke-linecap="round"></line><polygon points="224 352, 198 357, 212 359, 215 366, 224 352" stroke-linejoin="round" fill="#000000" stroke="#000000" stroke-width="1"></polygon></g></g><g><g cursor="cell"><line x1="224" y1="500" x2="342" y2="431" stroke="red" stroke-width="8" opacity="0"></line><line x1="224" y1="500" x2="342" y2="431" stroke="#000000" stroke-width="2" stroke-linecap="round"></line><polygon points="352 426, 326 431, 340 433, 343 440, 352 426" stroke-linejoin="round" fill="#000000" stroke="#000000" stroke-width="1"></polygon></g></g><g><g cursor="cell"><line x1="-432" y1="657" x2="-440" y2="763" stroke="red" stroke-width="8" opacity="0"></line><line x1="-432" y1="657" x2="-440" y2="763" stroke="#000000" stroke-width="2" stroke-linecap="round"></line></g></g><g><g cursor="cell"><line x1="112" y1="490" x2="160" y2="463" stroke="red" stroke-width="8" opacity="0"></line><line x1="112" y1="490" x2="160" y2="463" stroke="#000000" stroke-width="2" stroke-linecap="round"></line></g></g><g><g cursor="cell"><line x1="160" y1="463" x2="96" y2="426" stroke="red" stroke-width="8" opacity="0"></line><line x1="160" y1="463" x2="96" y2="426" stroke="#000000" stroke-width="2" stroke-linecap="round"></line></g></g><g><g cursor="cell"><line x1="160" y1="463" x2="224" y2="500" stroke="red" stroke-width="8" opacity="0"></line><line x1="160" y1="463" x2="224" y2="500" stroke="#000000" stroke-width="2" stroke-linecap="round"></line></g></g><g><g cursor="cell"><line x1="160" y1="463" x2="-32" y2="352" stroke="red" stroke-width="8" opacity="0"></line><line x1="160" y1="463" x2="-32" y2="352" stroke="#000000" stroke-width="2" stroke-linecap="round"></line></g></g><g><g cursor="cell"><line x1="160" y1="463" x2="352" y2="574" stroke="red" stroke-width="8" opacity="0"></line><line x1="160" y1="463" x2="352" y2="574" stroke="#000000" stroke-width="2" stroke-linecap="round"></line></g></g><g><g cursor="cell"><line x1="112" y1="490" x2="160" y2="463" stroke="red" stroke-width="8" opacity="0"></line><line x1="112" y1="490" x2="160" y2="463" stroke="#000000" stroke-width="2" stroke-linecap="round"></line></g></g><g><g cursor="cell"><line x1="-380" y1="774" x2="-223" y2="684" stroke="red" stroke-width="8" opacity="0"></line><line x1="-380" y1="774" x2="-223" y2="684" stroke="#000000" stroke-width="2" stroke-linecap="round"></line><polygon points="-213 678, -239 684, -226 685, -222 693, -213 678" stroke-linejoin="round" fill="#000000" stroke="#000000" stroke-width="1"></polygon></g></g><g><g cursor="cell"><line x1="-96" y1="426" x2="6" y2="485" stroke="red" stroke-width="8" opacity="0"></line><line x1="-96" y1="426" x2="6" y2="485" stroke="#000000" stroke-width="2" stroke-linecap="round"></line><polygon points="16 490, 7 475, 4 483, -10 485, 16 490" stroke-linejoin="round" fill="#000000" stroke="#000000" stroke-width="1"></polygon></g></g><g><g cursor="cell"><line x1="-151" y1="642" x2="-91" y2="608" stroke="red" stroke-width="8" opacity="0"></line><line x1="-151" y1="642" x2="-91" y2="608" stroke="#000000" stroke-width="2" stroke-linecap="round"></line><polygon points="-81 602, -107 607, -94 609, -91 617, -81 602" stroke-linejoin="round" fill="#000000" stroke="#000000" stroke-width="1"></polygon></g></g><g><g cursor="cell"><line x1="-16" y1="564" x2="22" y2="542" stroke="red" stroke-width="8" opacity="0"></line><line x1="-16" y1="564" x2="22" y2="542" stroke="#000000" stroke-width="2" stroke-linecap="round"></line><polygon points="32 537, 6 542, 20 544, 23 551, 32 537" stroke-linejoin="round" fill="#000000" stroke="#000000" stroke-width="1"></polygon></g></g><g><g cursor="cell"><line x1="352" y1="574" x2="470" y2="505" stroke="red" stroke-width="8" opacity="0"></line><line x1="352" y1="574" x2="470" y2="505" stroke="#000000" stroke-width="2" stroke-linecap="round"></line><polygon points="480 500, 454 505, 468 507, 471 514, 480 500" stroke-linejoin="round" fill="#000000" stroke="#000000" stroke-width="1"></polygon></g></g><g><g cursor="cell"><line x1="112" y1="490" x2="160" y2="463" stroke="red" stroke-width="8" opacity="0"></line><line x1="112" y1="490" x2="160" y2="463" stroke="#000000" stroke-width="2" stroke-linecap="round"></line></g></g><g><g cursor="cell"><line x1="112" y1="490" x2="160" y2="463" stroke="red" stroke-width="8" opacity="0"></line><line x1="112" y1="490" x2="160" y2="463" stroke="#000000" stroke-width="2" stroke-linecap="round"></line></g></g></g><g pointer-events=""><g opacity="1"><g id="fd7b0939-a81d-49f8-8a69-7d7f66ff6e7b" transform="translate(0 0)"><g><polygon points="128 148, 192 185, 128 222, 64 185" fill="#fff"></polygon><polygon points="64 259, 128 296, 128 222, 64 185" fill="#e6e6e6" stroke="#999"></polygon><polygon points="128 296, 192 259, 192 185, 128 222" fill="#ccc" stroke="#999"></polygon><polygon points="128 148, 64 185, 64 259, 128 296, 192 259, 192 185" fill="none" stroke="#000000" stroke-width="2"></polygon></g></g></g><g opacity="1"><g id="ba070636-ce05-4670-a5fd-9320ed3f601a" transform="translate(0 0)"><svg x="210" y="210" height="148.981" width="91.956" viewBox="0 0 24.330047 39.417932"><g transform="translate(240.35 -115.335)"><path d="M-240.082 146.018v4.445l6.973 4.025v-4.445z" fill="#d2d2d4" fill-rule="evenodd"></path><path d="M-233.11 150.043l9.858-.003v4.445l-9.857.003z" fill="#d2d2d4" fill-rule="evenodd"></path><path d="M-223.252 150.04l6.967-4.027v4.445l-6.967 4.028z" fill="#b8b8bb" fill-rule="evenodd"></path><path d="M-223.252 150.04v4.445" fill="none" stroke="#83838a" stroke-width=".267"></path><path d="M302.99-2468.894l-36.732 47.87-59.823 7.876-47.87-36.732-7.875-59.823 36.732-47.87 59.822-7.876 47.87 36.732z" fill="#848586" stroke="#83838a" stroke-width="2.151" transform="matrix(.0995 .07485 -.12957 .05747 -573.282 269.258)"></path><path d="M-240.082 139.12v4.445l6.973 4.025v-4.445z" fill="#d2d2d4" fill-rule="evenodd"></path><path d="M-233.11 143.145l9.858-.003v4.445l-9.857.003z" fill="#d2d2d4" fill-rule="evenodd"></path><path d="M-223.252 143.143l6.967-4.028v4.445l-6.967 4.028z" fill="#b8b8bb" fill-rule="evenodd"></path><path d="M302.99-2468.894l-36.732 47.87-59.823 7.876-47.87-36.732-7.875-59.823 36.732-47.87 59.822-7.876 47.87 36.732z" fill="#848586" stroke="#83838a" stroke-width="2.151" transform="matrix(.0995 .07485 -.12957 .05747 -573.282 262.36)"></path><path d="M-240.082 132.222v4.445l6.973 4.025v-4.445z" fill="#d2d2d4" fill-rule="evenodd"></path><path d="M-233.11 136.247l9.858-.003v4.445l-9.857.003z" fill="#d2d2d4" fill-rule="evenodd"></path><path d="M-223.252 136.245l6.967-4.028v4.445l-6.967 4.028z" fill="#b8b8bb" fill-rule="evenodd"></path><path d="M302.99-2468.894l-36.732 47.87-59.823 7.876-47.87-36.732-7.875-59.823 36.732-47.87 59.822-7.876 47.87 36.732z" fill="#848586" stroke="#83838a" stroke-width="2.151" transform="matrix(.0995 .07485 -.12957 .05747 -573.282 255.462)"></path><path d="M-240.082 125.324v4.445l6.973 4.025v-4.445z" fill="#d2d2d4" fill-rule="evenodd"></path><path d="M-233.11 129.349l9.858-.003v4.445l-9.857.003z" fill="#d2d2d4" fill-rule="evenodd"></path><path d="M-223.252 129.347l6.967-4.028v4.445l-6.967 4.028z" fill="#b8b8bb" fill-rule="evenodd"></path><path d="M-223.252 129.347l-9.857.002-6.973-4.025-.003-5.694 6.967-4.028 9.857-.002 6.973 4.025.003 5.694z" fill="#ececed"></path><path d="M-240.082 125.324l6.964 4.074 9.866-.053 6.967-4.026M-233.118 129.398l.008 4.396M-223.252 129.345v4.445" fill="none" stroke="#83838a" stroke-width=".267"></path><path d="M-240.085 119.63l.003 10.139 6.972 4.025 9.857-.003 6.966-4.027-.002-10.14-6.972-4.025-9.857.003z" fill="none" stroke="#000000" stroke-width=".529"></path><path d="M-223.252 136.242v4.446M-233.11 136.247v4.445" fill="none" stroke="#83838a" stroke-width=".267"></path><path d="M-240.082 132.222v4.445l6.973 4.025 9.857-.003 6.966-4.027.002-4.446-6.968 4.026-9.865.054z" fill="none" stroke="#000000" stroke-width=".529"></path><path d="M-233.11 143.145v4.445M-223.252 143.141v4.446" fill="none" stroke="#83838a" stroke-width=".267"></path><path d="M-240.082 139.12v4.445l6.973 4.025 9.857-.003 6.966-4.026.002-4.446-6.968 4.028-9.857.003z" fill="none" stroke="#000000" stroke-width=".529"></path><path d="M-240.082 146.018v4.445l6.973 4.025 9.857-.003 6.967-4.026v-4.445l-6.967 4.026-9.857.003z" fill="none" stroke="#000000" stroke-width=".529"></path><path d="M-233.11 150.043v4.445" fill="none" stroke="#83838a" stroke-width=".267"></path><circle cx="-9.268" cy="254.217" fill="#4286c5" r="5.832" transform="scale(1.22475 .7071) rotate(45)"></circle><path d="M-227.78 122.24q.75.433 1.536.73.788.298 1.43.362l-.538.31q-.218.127-.73.046-.513-.08-1.181-.34-.669-.26-1.327-.64-.657-.38-1.108-.766-.45-.386-.59-.681-.138-.296.08-.422l.537-.31q.111.37.626.825.516.454 1.265.887zm-2.428 1.403q.749.432 1.536.73.788.297 1.43.361l-.538.31q-.218.127-.73.046-.513-.08-1.182-.34-.668-.26-1.326-.64-.657-.38-1.108-.766-.45-.386-.59-.681-.139-.296.08-.422l.537-.31q.11.37.626.825.516.454 1.265.887zm1.214-.701q.749.432 1.536.73.788.297 1.43.361l-.538.31q-.218.126-.73.046-.513-.08-1.181-.34-.669-.26-1.327-.64-.657-.38-1.108-.766-.45-.386-.59-.681-.138-.296.08-.422l.537-.31q.111.37.626.825.516.454 1.265.887zm3.642-2.103q.657.38 1.108.766.45.386.59.681.139.296-.08.422l-.404.234q-.218.126-.73.045-.513-.08-1.181-.34-.67-.26-1.327-.64-.657-.38-1.108-.766-.45-.386-.59-.681-.139-.296.08-.422l.404-.234q.218-.126.73-.045.513.08 1.182.34.668.26 1.326.64z" fill="#fff"></path></g></svg></g></g><g opacity="1"><g id="2d9b7963-56f1-4bd2-9126-a0b6a59ba321" transform="translate(0 0)"><g><polygon points="-128 296, -64 333, -128 370, -192 333" fill="#fff"></polygon><polygon points="-192 407, -128 444, -128 370, -192 333" fill="#e6e6e6" stroke="#999"></polygon><polygon points="-128 444, -64 407, -64 333, -128 370" fill="#ccc" stroke="#999"></polygon><polygon points="-128 296, -192 333, -192 407, -128 444, -64 407, -64 333" fill="none" stroke="#000000" stroke-width="2"></polygon></g></g></g><g opacity="1"><g id="1956e62b-7538-473a-ad3a-0d66c3efc381" transform="translate(0 0)"><svg x="320" y="306" height="137.556" width="128" viewBox="0 0 33.866665 36.394987"><g style="line-height:0%" fill="#4286c5" font-family="sans-serif" font-size="3.175" stroke-width=".265"><path d="M.187 12.17v14.365l16.586 9.577V21.747l-4.146-7.183-8.293-4.787z" fill="#d2d2d4"></path><path d="M20.955 14.564l8.292-4.787 4.147 2.394v14.364l-16.587 9.576V21.748z" fill="#b8b8bb"></path><path d="M4.334 9.777l8.292 4.788h8.293l8.293-4.788V4.988L20.919.2h-8.293L4.334 4.988zM12.856 14.565h8.294l-4.147 7.182z" fill="#ececed"></path><path d="M4.394 4.806v4.789L.247 11.988zM29.212 9.595v-4.79l4.146 7.183z" fill="#d2d2d4"></path><path d="M208.47 90.288l4.345-4.346 4.346 8.693z" fill="none" stroke="#83838a" stroke-width=".264" transform="scale(1.34943 .77909) rotate(45 195.366 -185.783)"></path><path d="M199.734 94.678l13.037 13.037h17.383L217.117 94.68l-8.692-4.347h-8.69zM212.819 85.928v-8.69h4.345l13.037 13.037.001 17.382-13.037-13.037zM199.734 90.333h8.69l4.347-4.346v-8.69l-4.347-4.347h-8.69l-4.346 4.346v8.69z" fill="none" stroke="#83838a" stroke-width=".257" transform="scale(1.34943 .77909) rotate(45 195.366 -185.783)"></path><path d="M212.855 107.631l-13.037-13.037-4.346-8.692v-8.69l4.346-4.347h8.69l8.692 4.346 13.038 13.038v17.383z" fill="none" stroke="#000000" stroke-width=".514" transform="scale(1.34943 .77909) rotate(45 195.366 -185.783)"></path><path style="line-height:1.25;-inkscape-font-specification:&#x27;Open Sans&#x27;" d="M10.6 9.65l5.492-5.978-.062-.036q-2.286 1.471-3.094 1.938L8.238 8.286 6.325 7.18l10.099-5.83 2.915 1.682-5.333 5.84.042.023 10.258-2.995 2.915 1.683-10.1 5.83-1.996-1.152 4.78-2.76q.339-.195.788-.447.456-.247 2.445-1.3l-.062-.036-10.514 3.063z" font-family="Open Sans" font-size="14.883"></path></g></svg></g></g><g opacity="1"><g id="9066ecbc-4f96-48ea-b389-65152302c5f6" transform="translate(0 0)"><g><polygon points="512 370, 576 407, 512 444, 448 407" fill="#fff"></polygon><polygon points="448 481, 512 518, 512 444, 448 407" fill="#e6e6e6" stroke="#999"></polygon><polygon points="512 518, 576 481, 576 407, 512 444" fill="#ccc" stroke="#999"></polygon><polygon points="512 370, 448 407, 448 481, 512 518, 576 481, 576 407" fill="none" stroke="#000000" stroke-width="2"></polygon></g></g></g><g opacity="1"><g id="9da51bb9-fcc8-4e3c-876d-e37503da1458" transform="translate(0 0)"><svg x="16" y="432" height="113.438" width="96" viewBox="0 0 25.400052 30.013873"><g transform="translate(412.599 -86.957)"><path d="M-412.333 102.348v4.786l8.29 4.785h8.289l8.29-4.785v-4.786l-8.29-4.786h-8.29z" fill="#3c3c3c" fill-rule="evenodd"></path><path d="M-395.754 111.92l8.29-4.786v4.785l-8.29 4.786z" fill="#090909" fill-rule="evenodd"></path><path d="M-404.044 111.92h8.29v4.785h-8.29z" fill="#232323" fill-rule="evenodd"></path><path d="M-412.333 107.134v4.785l8.29 4.786v-4.786z" fill="#232323" fill-rule="evenodd"></path><path d="M-412.333 107.134l8.29 4.785h8.289l8.29-4.785M-404.044 111.92v4.785M-395.754 111.92v4.785" fill="none" stroke="#5e5e5e" stroke-width=".26588"></path><path d="M-412.333 102.348v9.571l8.29 4.786h8.289l8.29-4.786v-9.571l-8.29-4.786h-8.29z" fill="none" stroke="#000000" stroke-width=".53176"></path><path d="M-412.333 97.178v4.786l8.29 4.786h8.289l8.29-4.786v-4.786l-8.29-4.786h-8.29z" fill="#3c3c3c" fill-rule="evenodd"></path><path d="M-395.754 106.75l8.29-4.786v4.786l-8.29 4.786z" fill="#090909" fill-rule="evenodd"></path><path d="M-404.044 106.75h8.29v4.786h-8.29z" fill="#232323" fill-rule="evenodd"></path><path d="M-412.333 101.964v4.786l8.29 4.786v-4.786z" fill="#232323" fill-rule="evenodd"></path><path d="M-412.333 101.964l8.29 4.786h8.289l8.29-4.786M-404.044 106.75v4.786M-395.754 106.75v4.786" fill="none" stroke="#5e5e5e" stroke-width=".266"></path><path d="M-412.333 97.178v9.572l8.29 4.786h8.289l8.29-4.786v-9.572l-8.29-4.786h-8.29z" fill="none" stroke="#000000" stroke-width=".532"></path><path d="M-412.333 92.01v4.785l8.29 4.786h8.289l8.29-4.786v-4.786l-8.29-4.786h-8.29z" fill="#3c3c3c" fill-rule="evenodd"></path><path d="M-395.754 101.58l8.29-4.785v4.786l-8.29 4.786z" fill="#090909" fill-rule="evenodd"></path><path d="M-404.044 101.58h8.29v4.787h-8.29z" fill="#232323" fill-rule="evenodd"></path><path d="M-412.333 96.795v4.786l8.29 4.786v-4.786z" fill="#232323" fill-rule="evenodd"></path><path d="M-412.333 96.795l8.29 4.786h8.289l8.29-4.786M-404.044 101.58v4.787M-395.754 101.58v4.787" fill="none" stroke="#5e5e5e" stroke-width=".266"></path><path d="M-412.333 92.01v9.57l8.29 4.787h8.289l8.29-4.786v-9.572l-8.29-4.786h-8.29z" fill="none" stroke="#000000" stroke-width=".532"></path><circle cx="-136.478" cy="325.284" fill="#f4b934" r="5.801" transform="scale(1.22475 .7071) rotate(45)"></circle><g style="line-height:0%" font-family="sans-serif" font-size="3.191" stroke-width=".266"><path style="line-height:1.25;-inkscape-font-specification:&#x27;Droid Serif&#x27;" d="M-399.242 93.57l.48-.601q.222-.275.177-.448-.04-.17-.467-.416l-.507-.293 1.065-.614.937.541q.825.476.92.934.1.46-.417 1.114l-3.452 4.39-1.622-.937 1.654-2.121-3.729.923-1.622-.936z" fill="#fff" font-family="Droid Serif" font-size="9.971"></path></g></g></svg></g></g><g opacity="1"><g id="6e74e281-c0c3-4bb6-82dc-ba17adfc6e70" transform="translate(0 0)"><svg x="-377" y="530" height="93.28" width="81" viewBox="0 0 21.431124 24.680386"><path d="M.268 5.102l12.537 7.238 5.224-.603 3.134-9.048L16.984.276 1.313 2.086z" fill="#ececed" fill-rule="evenodd"></path><path d="M.268 5.102v12.064l12.537 7.238V12.34z" fill="#d2d2d4" fill-rule="evenodd"></path><path d="M12.805 12.34l5.224-.603v12.064l-5.224.603z" fill="#d2d2d4" fill-rule="evenodd"></path><path d="M18.029 11.737l3.134-9.048v12.064l-3.134 9.048z" fill="#b8b8bb" fill-rule="evenodd"></path><path d="M.268 5.102l12.537 7.238 5.224-.603 3.134-9.048M18.029 11.737v12.064M12.805 12.34v12.064" fill="none" stroke="#83838a" stroke-width=".265"></path><path d="M.268 17.166l12.537 7.238 5.224-.603 3.134-9.048V2.689L16.984.276 1.313 2.086.268 5.102z" fill="none" stroke="#000000" stroke-width=".529"></path><path d="M16.852 3.319c-.637-.01-1.269-.156-1.755-.437-.486-.28-.738-.645-.756-1.013l-3.498.035c.11.43-.121.884-.694 1.215-.364.21-.812.34-1.282.391-.625.068-1.225.242-1.709.521-1.273.735-1.277 1.926-.013 2.664.733.423 1.145.956 1.247 1.509.957.059 1.88.296 2.613.72 1.279.73 3.34.727 4.614-.008.483-.28.784-.626.902-.987.089-.271.315-.53.678-.74.573-.33 1.36-.464 2.104-.4l.061-2.02c-.637-.01-1.269-.156-1.755-.437-.486-.28-.739-.645-.757-1.013z" fill="none"></path><path d="M17.277 4.302c.467.27 1.056.427 1.664.471l-.05 1.693c-.73-.014-1.466.14-2.023.462-.404.234-.655.522-.754.824-.107.33-.381.647-.823.902-1.16.671-3.041.674-4.207.007-.722-.418-1.619-.665-2.555-.75-.144-.54-.573-1.06-1.296-1.477C6.081 5.759 6.086 4.672 7.247 4c.441-.256.989-.414 1.559-.476.522-.057 1.02-.203 1.424-.436.557-.322.823-.749.8-1.17l2.926-.03c.076.352.348.693.815.963.473.274 1.071.432 1.688.473.072.357.345.703.818.976z" fill="#4286c5" fill-rule="evenodd"></path><g style="line-height:0%" fill="#fff" font-family="Interstate" font-size="5.176" stroke-width=".268"><path style="line-height:1.25;-inkscape-font-specification:Interstate" d="M11.246 3.567l1.863 1.078-.399.231-1.429-.826-.86.497q.139.04.259.09.122.049.225.108.588.34.609.725.021.385-.529.703-.566.327-1.233.305-.665-.023-1.307-.394-.22-.127-.414-.282-.19-.154-.36-.339l.478-.276q.096.19.265.352.17.163.421.309.407.235.858.249.45.013.818-.199.366-.212.343-.473-.024-.26-.43-.496-.19-.11-.423-.196-.23-.084-.517-.147zM14.127 7.104q.268.239.228.482-.038.245-.376.44-.52.3-1.16.259-.642-.042-1.3-.423-.221-.128-.412-.29-.19-.158-.352-.353l.458-.265q.082.18.259.35.176.17.432.319.446.258.855.29.412.035.748-.16.31-.179.265-.406-.04-.227-.428-.451l-.408-.237.39-.225.427.247q.35.202.675.23.326.026.59-.127.27-.156.22-.35-.044-.195-.401-.401-.195-.113-.461-.218-.266-.104-.623-.208l.423-.244q.346.112.618.227.275.115.484.236.54.313.609.638.07.323-.348.565-.291.168-.66.189-.367.019-.752-.114z"></path></g></svg></g></g><g opacity="1"><g id="2ea209ac-8446-4c52-be1b-0f230ed0a869" transform="translate(0 0)"><svg x="-126" y="520" height="108.05" width="123" viewBox="0 0 32.543749 28.588253"><path d="M10.115 6.02v14.218l7.873-4.318V1.474z" fill="#090909" fill-rule="evenodd" stroke="#5e5e5e" stroke-width=".268"></path><path d="M.265 2.228l9.85 3.791v14.219l-9.85-8.531z" fill="#232323" fill-rule="evenodd" stroke="#5e5e5e" stroke-width=".265"></path><path d="M10.115 6.02l7.873-4.546L3.548.332.265 2.228z" fill="#3c3c3c" fill-rule="evenodd" stroke="#5e5e5e" stroke-width=".265"></path><path d="M.265 11.707l9.85 8.53 7.873-4.317V1.474L3.392.271.265 2.076z" fill="none" stroke="#000000" stroke-width=".529"></path><path d="M22.429 3.65L14.22 8.39l14.828 10.397 3.231-1.866z" fill="#3c3c3c" fill-rule="evenodd" stroke="#5e5e5e" stroke-width=".268"></path><path d="M14.22 8.39V22.61l14.777 5.687.051-9.509z" fill="#232323" fill-rule="evenodd" stroke="#5e5e5e" stroke-width=".265"></path><path d="M29.048 18.787l3.231-1.866V26.4l-3.282 1.897z" fill="#090909" fill-rule="evenodd" stroke="#5e5e5e" stroke-width=".265"></path><path d="M22.429 3.65L14.22 8.39V22.61l14.777 5.687 3.282-1.897v-9.478z" fill="none" stroke="#000000" stroke-width=".529"></path><path d="M21.09 20.43q.163.375.048.64t-.44.265q-.326 0-.671-.265-.346-.265-.509-.64-.162-.374-.047-.639t.44-.265q.326 0 .671.265.346.265.509.64zm1.573-1.808q.08.184.022.318-.059.134-.218.134-.16 0-.335-.134-.176-.135-.255-.318-.082-.187-.024-.32.058-.132.22-.132.163 0 .336.132.173.133.254.32zm1.573 3.617q.08.184.021.318-.058.134-.218.134t-.335-.134q-.175-.135-.255-.318-.081-.187-.023-.32.057-.132.22-.132t.335.132q.173.133.255.32zm-1.826-1.487l-.284-.654q-.016-.035-.052-.068-.036-.034-.065-.038l-.513-.084q-.088-.124-.215-.269.03-.17.1-.406.006-.035-.01-.07-.018-.043-.05-.068-.117-.106-.39-.316-.275-.21-.333-.21-.034 0-.054.025l-.215.317q-.143-.067-.284-.11-.2-.38-.309-.547-.058-.085-.129-.085h-.571q-.034 0-.05.027-.016.026-.004.062l.164.54q-.089.036-.182.11l-.5-.315q-.032-.024-.071-.024-.034 0-.053.028-.238.47-.196.565.014.032.05.067.053.05.208.187.155.138.238.216-.003.155.018.29l-.43.084q-.029.004-.038.034-.008.03.008.069l.285.653q.015.036.051.069.036.033.065.037l.513.085q.088.124.215.268-.03.17-.1.407-.005.038.01.07.018.043.052.07.113.107.388.315.275.208.333.209.034 0 .054-.025l.215-.318q.132.064.286.113.2.382.307.544.058.085.129.085h.571q.034 0 .05-.027.016-.026.004-.062l-.164-.54q.089-.035.183-.11l.499.315q.035.024.072.024.033 0 .052-.028.238-.47.196-.565-.014-.032-.05-.067-.062-.057-.212-.19-.15-.135-.23-.213-.004-.169-.022-.29l.431-.08q.028-.007.036-.038.008-.03-.008-.068zm1.147-1.883l-.215-.494q-.025-.057-.505-.11-.079-.095-.172-.183-.017-.4-.056-.488-.006-.014-.023-.024-.483-.251-.49-.251-.024 0-.069.166-.044.166-.055.24-.064-.007-.095-.007t-.09.007q-.075-.074-.264-.24-.188-.166-.213-.166-.006 0-.272.25-.008.011-.002.025.039.088.369.488-.017.088-.012.183-.435.053-.41.11l.215.494q.024.057.505.11.084.102.172.184.017.399.055.487.006.014.023.025l.138.07.234.12q.11.057.117.057.024 0 .07-.164.045-.164.056-.239.064.007.095.007.03 0 .089-.007.266.251.455.396l.021.007q.012 0 .273-.247.008-.01.002-.025-.038-.088-.368-.487.017-.082.012-.184.435-.053.41-.11zm1.572 3.617l-.215-.494q-.024-.057-.505-.11-.078-.095-.172-.184-.017-.399-.055-.487-.006-.014-.023-.025-.484-.25-.49-.25-.025 0-.069.165-.044.166-.055.24-.065-.006-.096-.006-.03 0-.089.007-.075-.075-.264-.24-.189-.166-.213-.166-.006 0-.272.25-.008.01-.002.025.038.088.369.487-.017.088-.013.184-.434.053-.41.11l.215.494q.025.057.505.11.085.102.173.183.016.4.055.488.006.014.023.024l.138.07.233.121q.111.057.117.057.025 0 .07-.165.045-.164.056-.238.065.007.095.007.031 0 .09-.007.265.25.454.396l.022.007q.012 0 .273-.248.008-.01.002-.024-.038-.088-.369-.488.017-.08.013-.183.434-.053.41-.11z" fill="#f4b934"></path></svg></g></g><g opacity="1"><g id="9818026e-f2de-4a78-bd2a-494f56f53103" transform="translate(0 0)"><svg x="-240" y="546" height="148.142" width="93" viewBox="0 0 24.606249 39.195941"><g transform="translate(-90.671 -137.288)"><path d="M91.985 141.821l14.632 8.448 7.316-4.224-14.632-8.447z" fill="#ececed" fill-rule="evenodd"></path><path d="M91.985 165.958l-1.045 1.81v-1.207z" fill="#d2d2d4" fill-rule="evenodd"></path><path d="M91.985 165.958l14.632 8.447-1.046 1.81-14.566-8.56zM106.617 174.405l-1.046 1.81h2.09z" fill="#d2d2d4" fill-rule="evenodd"></path><path d="M91.985 141.821v24.137l14.632 8.447V150.27z" fill="#d2d2d4" fill-rule="evenodd"></path><path d="M106.617 174.405l1.045 1.81 7.316-4.223v-1.207l-1.045-.603z" fill="#b8b8bb" fill-rule="evenodd"></path><path d="M106.617 150.27l7.316-4.225v24.137l-7.316 4.223z" fill="#b8b8bb" fill-rule="evenodd"></path><g fill="none" stroke="#83838a"><path d="M113.933 170.182l-7.316 4.223-14.632-8.447-1.045 1.81M91.985 141.821l14.632 8.448 7.316-4.224M106.617 150.27v24.135M105.571 176.216l1.046-1.81 1.045 1.81M113.933 170.182l1.045 1.81" stroke-width=".26818"></path></g><path d="M90.94 167.768v-1.207l1.045-.603V141.82l7.316-4.223 14.632 8.447v24.137l1.045.603v1.207l-7.316 4.224h-2.09z" fill="none" stroke="#000000" stroke-width=".529"></path><ellipse cx="141.009" cy="74.394" fill="#4286c5" rx="6.047" ry="4.714" transform="matrix(.19572 .98066 .96381 .26658 0 0)"></ellipse><ellipse cx="141.009" cy="74.394" fill="#fff" rx="5.037" ry="3.927" transform="matrix(.19572 .98066 .96381 .26658 0 0)"></ellipse><path d="M99.03 153.239c-3.067 2.89-1.034 7.41.27 9.702" fill="none" stroke="#4286c5" stroke-width=".51973284"></path><g transform="translate(374.17 163.896) scale(.26818)"><ellipse cx="272.14" cy="-1124.64" fill="#4286c5" rx="3.335" ry="2.648" transform="matrix(.19572 .98066 .96381 .26658 0 0)"></ellipse><ellipse cx="290.38" cy="-1128.297" fill="#4286c5" rx="3.687" ry="2.835" transform="matrix(.19572 .98066 .96381 .26658 0 0)"></ellipse><ellipse cx="290.282" cy="-1113.221" fill="#4286c5" rx="3.51" ry="2.717" transform="matrix(.19572 .98066 .96381 .26658 0 0)"></ellipse><path d="M-1033.087-41.48c4.26 21.344 17.38 30.943 23.61 33.65M-1039.896-25.075c12.675 15.122 22.864 16.4 30.106 8.948" fill="none" stroke="#4286c5" stroke-width="1.938"></path></g></g></svg></g></g><g opacity="1"><g id="4a627641-d926-47c0-8128-34d4a1645a1d" transform="translate(0 0)"><svg x="-440" y="709" height="95.068" width="63" viewBox="0 0 16.669 25.153"><path d="M16.668 22.903q0 1.64-.864 2.091-.865.451-2.297-.376L3.161 18.645q-1.433-.827-2.297-2.276Q.001 14.921 0 13.28q0-.723.042-1.39.042-.666.166-1.394.124-.727.313-1.302.19-.575.51-1.039.319-.464.733-.683.414-.22 1.012-.147.598.073 1.32.49.107.06.497.58.391.52.882 1.165.491.646 1.279 1.394.788.75 1.58 1.207.793.458 1.58.618.788.161 1.28.083.49-.079.881-.147.39-.069.497-.007.722.416 1.32 1.035.598.619 1.013 1.315.414.697.734 1.531t.509 1.627q.19.793.313 1.664.124.872.166 1.586.042.713.042 1.438zM12.88 8.51q0 2.173-1.332 2.942-1.332.769-3.214-.318-1.882-1.086-3.214-3.393Q3.79 5.434 3.79 3.26q0-2.173 1.331-2.942 1.332-.77 3.214.317t3.214 3.394q1.332 2.306 1.332 4.48z" fill="#000000"></path></svg></g></g></g><g pointer-events=""></g><g pointer-events=""><g opacity="1"><g id="04d6d465-1b40-4b6e-9f9c-e1e7f3fc763e" transform="translate(0 0)"><svg x="-256" y="759" overflow="visible"><g transform="scale(1.118033988749895) matrix(0.707 0.409 -0.707 0.409 0 0)"><svg width="100" height="100" x="-50" y="-50" style="fill:#ffffff"><svg data-name="Layer 1" xmlns="http://www.w3.org/2000/svg" width="100" height="100" viewBox="0 0 100 100"><path d="M79.5 79.9h-59a3 3 0 0 1-3-3V31a3 3 0 0 1 3-3h59.1a3 3 0 0 1 3 3v46a3.08 3.08 0 0 1-3.1 2.9z" fill="#4b612c"/><path d="M79.5 75.9h-59a3 3 0 0 1-3-3V27a3 3 0 0 1 3-3h59.1a3 3 0 0 1 3 3v46a3.08 3.08 0 0 1-3.1 2.9z" fill="#759c3e"/><path fill="#fff" d="M30.3 28.1H79v4.4H30.3z"/><circle cx="23.8" cy="30.3" r="3.5" fill="#fff"/><path fill="#fff" d="M21 36.8h58v35.1H21z"/><path fill="#759c3e" d="M55.5 58.1l-.2.6-.5 1.4-1.3-.6-.6-.3-.3.5-.9 1.2-1.1-.9-.5-.4-.4.4-1.2.9-.8-1.2-.3-.5-.6.3-1.3.6-.5-1.4-.2-.6-1 .2H43v11l7-5.9 7 5.9v-11h-.7l-.8-.2z"/><path fill="#759c3e" d="M59.1 48.8l1.2-1.3-1.5-1 .8-1.6-1.7-.6.4-1.7-1.8-.2-.1-1.7-1.8.3-.5-1.6-1.6.7-1-1.4-1.4 1.1-1.3-1.1-1 1.4-1.6-.7-.6 1.6-1.7-.3-.1 1.7-1.8.2.3 1.7-1.6.6.7 1.6-1.4 1 1.1 1.3-1.1 1.3 1.4 1-.7 1.6 1.6.6-.5 1.7 1.4.2h.3l.3 1.7 1.8-.3.6 1.7 1.6-.8 1 1.5 1.3-1.2 1.4 1.2 1-1.5 1.6.8.5-1.7 1.8.3.2-1.7h.1l1.6-.2-.4-1.7 1.7-.6-.8-1.6 1.5-1-1.2-1.3z"/><path fill="#fff" d="M48.4 49.8l-2.5-2.7-2.8 2.8 5.2 5.2 8.8-8.8-2-2.1-6.7 5.6z"/></svg></svg></g></svg></g></g><g opacity="1"><g id="276006f1-fe64-4300-ad49-bb064e87c084" transform="translate(0 0)"><svg x="-448" y="629" overflow="visible"><g transform="scale(0.8944271909999159) matrix(0.707 0.409 -0.707 0.409 0 0)"><svg width="100" height="100" x="-50" y="-50" style="fill:#ffffff"><svg data-name="Layer 1" xmlns="http://www.w3.org/2000/svg" width="100" height="100" viewBox="0 0 100 100"><path fill="#9d5025" d="M16.53 21.14h66.94v16.44H16.53z"/><path fill="#f58536" d="M16.53 19.11h66.94v16H16.53z"/><path fill="#9d5025" d="M16.53 42.48h66.94v17.16H16.53z"/><path fill="#f58536" d="M16.53 41.17h66.94v16H16.53z"/><path fill="#9d5025" d="M16.53 64.14h66.94v16.62H16.53z"/><path fill="#f58536" d="M16.53 62.28h66.94v16H16.53z"/><path d="M24.78 31.89h-1.53v-7.08h-2v-1h.15c.92 0 2-.22 2.25-1.46v-.19h1.12zm8.62-8.32a17.36 17.36 0 0 0-3 8.32h-1.62a16.72 16.72 0 0 1 3.14-8.15h-4.18v-1.41h5.66zm6.84 8.32h-5.58c0-4.24 4-4.14 4-7.17 0-.8-.34-1.47-1.19-1.47-1.15 0-1.33 1-1.33 2h-1.46c0-1.94.78-3.14 2.82-3.14a2.41 2.41 0 0 1 2.7 2.6c0 3.24-3.11 3.44-3.83 5.83h3.87zm3.23 0h-1.53v-1.81h1.54zm5.58 0h-1.53v-7.08h-2v-1h.15c.92 0 2-.22 2.25-1.46v-.19h1.12zm5.76.19c-2.42 0-2.87-1.87-2.87-4.67s.53-5.28 3-5.28c1.68 0 2.58.77 2.58 2.37H56c0-.56-.26-1.27-1-1.27-1.44 0-1.52 1.94-1.52 3.36a2 2 0 0 1 1.86-1c1.31 0 2.36 1 2.36 2.91.04 2.25-.86 3.59-2.89 3.59zm6.06-.19h-1.54v-1.81h1.54zm4.49.19c-1.84 0-2.86-1.18-2.86-5s1-5 2.86-5 2.86 1.19 2.86 5-1.03 5.01-2.86 5.01zm6-.19h-1.51v-1.81h1.54zm4.49.19c-1.84 0-2.86-1.18-2.86-5s1-5 2.86-5 2.86 1.19 2.86 5-1 5.01-2.83 5.01zM75.88 44.22c1.83 0 2.86 1.18 2.86 5s-1 5-2.86 5S73 53 73 49.19s1-4.97 2.88-4.97zm-6 7.93h1.54V54h-1.57zm-6.92-6.28h.15c.92 0 2-.22 2.25-1.46v-.19h1.12V54h-1.57v-7.11h-2zm-3.6 6.28h1.54V54h-1.57zM55 44.22c1.68 0 2.58.77 2.58 2.37H56c0-.56-.26-1.27-1-1.27-1.44 0-1.52 1.94-1.52 3.36a2 2 0 0 1 1.86-1c1.31 0 2.36 1 2.36 2.91 0 2.25-.9 3.58-2.93 3.58-2.42 0-2.87-1.87-2.87-4.67s.57-5.28 3.1-5.28zm-9.45 1.65h.15c.92 0 2-.22 2.25-1.46v-.19h1.12V54h-1.55v-7.11h-2zm-3.6 6.28h1.54V54h-1.55zm-4.46-6.83c-1.15 0-1.33 1-1.33 2h-1.48c0-1.94.78-3.14 2.82-3.14a2.41 2.41 0 0 1 2.7 2.6c0 3.24-3.11 3.44-3.83 5.82h3.87V54h-5.58c0-4.24 4-4.14 4-7.18 0-.82-.34-1.5-1.19-1.5zm-9.74-.91h5.65v1.24a17.38 17.38 0 0 0-3 8.32h-1.62a16.73 16.73 0 0 1 3.14-8.15h-4.18zm-6.47 1.46h.15c.92 0 2-.22 2.25-1.46v-.19h1.12V54h-1.55v-7.11h-2zM75.88 65.35c1.83 0 2.86 1.18 2.86 5s-1 5-2.86 5S73 74.1 73 70.32s1-4.97 2.88-4.97zm-6 7.93h1.54v1.82h-1.57zm-4.46-6.83c-1.15 0-1.33 1-1.33 2h-1.5c0-1.94.78-3.14 2.82-3.14a2.41 2.41 0 0 1 2.7 2.6c0 3.23-3.1 3.44-3.83 5.82h3.87v1.37h-5.58c0-4.24 4-4.15 4-7.18 0-.8-.33-1.47-1.18-1.47zm-6.05 6.83h1.54v1.82h-1.58zM55 65.35c1.68 0 2.58.77 2.58 2.37H56c0-.57-.26-1.27-1-1.27-1.44 0-1.52 1.94-1.52 3.36a2 2 0 0 1 1.86-1c1.31 0 2.36 1 2.36 2.91 0 2.25-.9 3.58-2.93 3.58-2.42 0-2.87-1.87-2.87-4.67s.57-5.28 3.1-5.28zM45.54 67h.15c.92 0 2-.22 2.25-1.46v-.19h1.12v9.75h-1.54V68h-2zm-3.6 6.28h1.54v1.82h-1.54zm-4.46-6.83c-1.15 0-1.33 1-1.33 2h-1.47c0-1.94.78-3.14 2.82-3.14a2.41 2.41 0 0 1 2.7 2.6c0 3.23-3.11 3.44-3.83 5.82h3.87v1.37h-5.58c0-4.24 4-4.15 4-7.18 0-.8-.34-1.47-1.19-1.47zm-9.74-.91h5.66v1.24a17.37 17.37 0 0 0-3 8.32h-1.62a16.73 16.73 0 0 1 3.14-8.15h-4.18zM21.26 67h.15c.92 0 2-.22 2.25-1.46v-.19h1.12v9.75h-1.53V68h-2z" fill="#fff"/><path d="M65.36 23.39c-1.05 0-1.32 1-1.32 3.87s.27 3.87 1.32 3.87 1.32-1 1.32-3.87-.27-3.87-1.32-3.87zM75.88 23.39c-1.05 0-1.32 1-1.32 3.87s.27 3.87 1.32 3.87 1.32-1 1.32-3.87-.27-3.87-1.32-3.87zM75.88 53.2c1.05 0 1.32-1 1.32-3.87s-.27-3.87-1.32-3.87-1.32 1-1.32 3.87.26 3.87 1.32 3.87zM54.94 53.2c.94 0 1.27-1 1.27-2.09 0-1.35-.39-2.11-1.27-2.11-1.12 0-1.32 1-1.32 2.18s.38 2.02 1.32 2.02zM75.88 74.33c1.05 0 1.32-1 1.32-3.87s-.27-3.87-1.32-3.87-1.32 1-1.32 3.87.26 3.87 1.32 3.87zM54.94 74.33c.94 0 1.27-1 1.27-2.09 0-1.35-.39-2.11-1.27-2.11-1.12 0-1.32 1-1.32 2.18s.38 2.02 1.32 2.02zM54.94 31.13c.94 0 1.27-1 1.27-2.09 0-1.35-.39-2.11-1.27-2.11-1.12 0-1.32 1-1.32 2.18s.38 2.02 1.32 2.02z" fill="#f58536"/></svg></svg></g></svg></g></g><g opacity="1"><g id="e3d76d8b-4578-49c6-9cc9-cd3819a3fdab" transform="translate(0 0)"><svg x="128" y="185" overflow="visible"><g transform="scale(0.8944271909999159) matrix(0.707 0.409 -0.707 0.409 0 0)"><svg width="100" height="100" x="-50" y="-50" style="fill:#ffffff"><svg data-name="Layer 1" xmlns="http://www.w3.org/2000/svg" width="100" height="100" viewBox="0 0 100 100"><path fill="#692f56" d="M37.87 58.58L50 60.06l11.21-9.19L50 39.92l-12.13 1.5v17.16zM71.41 24.92l6.89-1.75 5.07 21.47-5.07 28.31-6.89-1.01V24.92z"/><path fill="#ad688b" d="M78.3 70.96l5.66 3.06V26l-5.66-2.83v47.79z"/><path fill="#cfb2c1" d="M71.41 65.11l6.89 1L50 91l-7.57-18.67 28.98-7.22z"/><path fill="#ad688b" d="M28.59 75.08l-6.89 1.75-3.91-48.87 10.8 1.7v45.42z"/><path fill="#512843" d="M28.59 34.89l-6.89-1L50 9l7.57 18.67-28.98 7.22z"/><path fill="#cfb2c1" d="M57.57 72.33l-18.33-4.57-7.32 1.4 18.12 21.06 7.53-17.89z"/><path fill="#512843" d="M42.43 27.67l7.54-18.65 18.11 21.82-7.32 1.4-18.33-4.57z"/><path fill="#ad688b" d="M62.13 58.58L50 60.06V39.92l12.13 1.5v17.16zM83.96 74.02L50 91V74.6l30.17-9.05 2.05.61 1.74 7.86z"/><path fill="#692f56" d="M31.92 69.16L50 74.59v16.39l-18.08-9.04V69.16z"/><path fill="#ad688b" d="M68.08 30.84L50 25.41V9.02l18.08 9.03v12.79z"/><path fill="#692f56" d="M16.04 25.98L50 9v16.4L16.04 35.58v-9.6z"/><path fill="#692f56" d="M21.7 29.62l-5.66-3.64V74l5.66 2.83V29.62z"/></svg></svg></g></svg></g></g><g opacity="1"><g id="5b0d28a9-03a6-4d8f-8862-5d760d4a1ba2" transform="translate(0 0)"><svg x="512" y="407" overflow="visible"><g transform="scale(0.8944271909999159) matrix(0.707 0.409 -0.707 0.409 0 0)"><svg width="100" height="100" x="-50" y="-50" style="fill:#ffffff"><svg data-name="Layer 1" xmlns="http://www.w3.org/2000/svg" width="100" height="100" viewBox="0 0 100 100"><path fill="#19486f" d="M70.39 35.54l9.22-11.73 4.33 11.73-8.88 1.13-4.67-1.13z"/><path fill="#205b99" d="M55.13 67.31l24.48 4.9 3.89-16.34-3.89-16.35-24.48 2.28v25.51z"/><path fill="#99bce3" d="M50 55.81v18.72l29.61-19.29-22.44-1.03-7.17 1.6z"/><path fill="#205b99" d="M55.69 50h8.66l11.56-11.2-11.56-15.91-8.66 2.51V50z"/><path fill="#205b99" d="M70.39 35.54l9.22-1.26V23.81l-9.22 2.16v9.57z"/><path fill="#5294cf" d="M83.94 54.78L50 58.2V91l33.94-16.97V54.78z"/><path fill="#5294cf" d="M50 91l10.14-14.62V35.65L50 33.6 39.42 60.44 50 91zM79.61 66.47l4.33 7.56v-33.6l-4.33-.91v26.95zM83.94 25.97l-4.33-2.16v10.47l4.33 1.26v-9.57zM77.11 28.02l-12.76-5.13V50h12.76V28.02z"/><path fill="#19486f" d="M29.61 35.54l-9.22-11.73-4.33 11.73 8.88 1.13 4.67-1.13z"/><path fill="#5294cf" d="M44.88 67.31l-24.49 4.9V39.52l24.49 2.28v25.51z"/><path fill="#99bce3" d="M50 55.81v20.81L20.39 55.24l22.44-1.03 7.17 1.6z"/><path fill="#5294cf" d="M44.31 50h-8.66L25 37.23l10.65-14.34 8.66 2.51V50z"/><path fill="#5294cf" d="M29.61 35.54l-9.22-1.26V23.81l9.22 2.16v9.57z"/><path fill="#205b99" d="M16.06 54.78L50 58.2V91L16.06 74.03V54.78z"/><path fill="#205b99" d="M50 91L39.86 77.43V35.65L50 33.6V91zM20.39 73.25l-4.33.78v-33.6l4.33-.91v33.73zM16.06 25.97l4.33-2.16v10.47l-4.33 1.26v-9.57zM22.89 28.02l12.76-5.13V50H22.89V28.02z"/><path fill="#19486f" d="M60.14 28.48L50 30.87l-10.14-2.39L50 9l10.14 19.48z"/><path fill="#5294cf" d="M50 9l10.14 5.13v14.35L50 25.4V9z"/><path fill="#205b99" d="M50 9l-10.14 5.13v14.35L50 25.4V9z"/></svg></svg></g></svg></g></g><g opacity="1"><g id="26c5d059-8ec9-49ab-bc5e-cbd1ec1ec993" transform="translate(0 0)"><svg x="-128" y="333" overflow="visible"><g transform="scale(0.8944271909999159) matrix(0.707 0.409 -0.707 0.409 0 0)"><svg width="100" height="100" x="-50" y="-50" style="fill:#ffffff"><svg data-name="Layer 1" xmlns="http://www.w3.org/2000/svg" width="100" height="100" viewBox="0 0 100 100"><path d="M89.17 51.89a7 7 0 0 1-.83-1.25 27.92 27.92 0 0 1-2.66-8.05 33.72 33.72 0 0 0-16-22.28c-6-3.69-12.09-6.09-19.31-5.16-9.55 1.23-17.64 4.79-23.2 13.06a65.9 65.9 0 0 0-7.36 15c-1.71 4.82-1.5 10.1-3.67 14.79a21.24 21.24 0 0 1-1.59 2.69c-1.5 2.29-3.41 4.41-4.48 6.88-2.64 6.07-1.19 9.58 4.69 12.6.6.31 1.22.59 1.85.84 6.86 2.78 22.88 6.22 32.82 2.39a34 34 0 0 0 6.66-2.85C64 76.3 71.9 72 79.76 67.72a33.12 33.12 0 0 0 9.52-7.22c2.55-2.95 2.48-5.7-.11-8.61z" fill="#4b612c"/><path d="M61.25 18.56a35 35 0 0 1 11.5 6.76c2.53 2 9.26 8.93 10.81 17.63.16 1.29.26 2.6.51 3.87a5.85 5.85 0 0 0 .85 1.54l.81 2s1.48 2.35 2.29 3.49c1 1.42 1.4 2.88.27 4.36-2.51 3.27-5.82 5.54-9.88 7.65l.41-4.27-2.66-.76c-1 2.28-.39 4 2.13 5.24-2.38 1.26-4.46 2.35-6.53 3.45-6.36 3.4-12.67 6.89-19.08 10.2a30.53 30.53 0 0 1-15.14 3.49 58.78 58.78 0 0 1-17.8-3.43c-2.6-.93-4.67-5-3.87-7.57a2.58 2.58 0 0 1 2.93-1.81c4.46.47 8.91 1 13.36 1.54 4.95.6 9.89 1.67 14.84 1.71 5.61 0 11-1.71 16.24-3.89-1.59.11-3.18.2-4.77.32-4.42.33-8.87.47-13.26 1.05-5.45.72-10.61-.47-15.79-1.76a16.51 16.51 0 0 1-10.09-6.87c-.93-1.39-1.5-3-.78-4.5.58.52 1.22 1.49 1.72 1.43s1.36-.94 1.63-1.63c.68-1.77 1.14-3.63 1.66-5.46a98.49 98.49 0 0 1 2.81-9.83c2.32-5.8 4.77-11.59 8.64-16.58a34.67 34.67 0 0 1 4.77-5.21c2.32-2 5.33-2.68 8.27-3 3.49-.33 7-.16 10.56-.19.2 0 .4.17.6.27z" fill="#759c3e"/><path d="M83.56 42.95a40.93 40.93 0 0 0-2.33-4.43 11.39 11.39 0 0 0-18.69.06c-2.92 4.09-4.28 8.76-5.06 13.64-.24 1.46-.41 2.94-.67 4.81a16.81 16.81 0 0 1-2.27-8.3c-.28-5.89.56-11.58 4.24-16.49 2.63-3.51 5.74-6.37 10.29-7a20.29 20.29 0 0 1 3.67.12c1.39 1.2 3.05 2.2 4.13 3.63a35.73 35.73 0 0 1 6.4 12 15.08 15.08 0 0 1 .29 1.96z" fill="#b7ca9d"/><path d="M61.25 18.56c-5.07 1.41-8 5.16-10.42 9.48-3.46 6.23-6 12.77-5.86 20a30.1 30.1 0 0 0 2.57 12c.18.4.31.82.56 1.48a5 5 0 0 1-4.5-2.31 14.76 14.76 0 0 1-2.6-9.12c.21-9.33 2-18.26 8.1-25.77a39.76 39.76 0 0 1 4.37-4.47 7.84 7.84 0 0 1 5.76-2z" fill="#b7ca9d"/><path d="M85.73 50.38c0 2.3-1.59 3.51-3.13 4.74-7.72 6.17-16.71 9.44-26.3 11.21-4.25.79-8.53 1.48-12.82 2-5.23.63-10.12-1.19-15.06-2.48-2-.53-4-1.18-6.07-1.77 0-.22 0-.43.07-.65a16.21 16.21 0 0 1 2.7 0c4 .69 7.93 1.72 11.94 2.11a52.89 52.89 0 0 0 11.08 0 80.61 80.61 0 0 0 20.16-4.72 86.55 86.55 0 0 0 10.92-5.32c2.78-1.56 5.35-3.53 5.7-7.15zM76.15 60.84c1.92-1.15 3.79-2.39 5.77-3.41a8.13 8.13 0 0 1 2.67-.36l.19.47-6 4.06z" fill="#b7ca9d"/></svg></svg></g></svg></g></g></g><g pointer-events=""><g opacity="1"><g id="e03e3cd7-c6b5-4074-9647-1141db0857e9" transform="translate(0 0)"><svg x="-112" y="694" overflow="visible" style="user-select:none"><text stroke="#ffffff" stroke-width="4" font-family="Open Sans" y="26.24" font-size="16pt" fill="#f5b720" font-weight="bold" transform="matrix(0.707 0.409 -0.707 0.409 0 0)" xml:space="preserve"><tspan x="8" dy="0">Managed CloudFront </tspan><tspan x="8" dy="1.1em">custom domain</tspan></text><text font-family="Open Sans" y="26.24" font-size="16pt" fill="#f5b720" font-weight="bold" transform="matrix(0.707 0.409 -0.707 0.409 0 0)" xml:space="preserve"><tspan x="8" dy="0">Managed CloudFront </tspan><tspan x="8" dy="1.1em">custom domain</tspan></text></svg></g></g><g opacity="1"><g id="c5c81b38-f026-4bd7-9246-b8517ca00a72" transform="translate(0 0)"><svg x="16" y="620" overflow="visible" style="user-select:none"><text stroke="#ffffff" stroke-width="4" font-family="Open Sans" y="26.24" font-size="16pt" fill="#f5b720" font-weight="bold" transform="matrix(0.707 0.409 -0.707 0.409 0 0)" xml:space="preserve"><tspan x="8" dy="0">API Gateway</tspan></text><text font-family="Open Sans" y="26.24" font-size="16pt" fill="#f5b720" font-weight="bold" transform="matrix(0.707 0.409 -0.707 0.409 0 0)" xml:space="preserve"><tspan x="8" dy="0">API Gateway</tspan></text></svg></g></g><g opacity="1"><g id="18941b49-b5a6-4cd8-b8eb-1f81bb55d676" transform="translate(0 0)"><svg x="128" y="537" overflow="visible" style="user-select:none"><text stroke="#ffffff" stroke-width="4" font-family="Open Sans" y="26.24" font-size="16pt" fill="#f5b720" font-weight="bold" transform="matrix(0.707 0.409 -0.707 0.409 0 0)" xml:space="preserve"><tspan x="8" dy="0">Python/Flask</tspan><tspan x="8" dy="1.1em">Lambda Function</tspan></text><text font-family="Open Sans" y="26.24" font-size="16pt" fill="#f5b720" font-weight="bold" transform="matrix(0.707 0.409 -0.707 0.409 0 0)" xml:space="preserve"><tspan x="8" dy="0">Python/Flask</tspan><tspan x="8" dy="1.1em">Lambda Function</tspan></text></svg></g></g><g opacity="1"><g id="6f72f38c-13c3-4d06-a441-e05b1f665afe" transform="translate(0 0)"><svg x="304" y="416" overflow="visible" style="user-select:none"><text stroke="#ffffff" stroke-width="4" font-family="Open Sans" y="26.24" font-size="16pt" fill="#f5b720" font-weight="bold" transform="matrix(0.707 0.409 -0.707 0.409 0 0)" xml:space="preserve"><tspan x="8" dy="0">Legacy </tspan><tspan x="8" dy="1.1em">Postgres</tspan></text><text font-family="Open Sans" y="26.24" font-size="16pt" fill="#f5b720" font-weight="bold" transform="matrix(0.707 0.409 -0.707 0.409 0 0)" xml:space="preserve"><tspan x="8" dy="0">Legacy </tspan><tspan x="8" dy="1.1em">Postgres</tspan></text></svg></g></g><g opacity="1"><g id="8448eb4e-c48e-40c9-8589-aedda6318204" transform="translate(0 0)"><svg x="160" y="333" overflow="visible" style="user-select:none"><text stroke="#ffffff" stroke-width="4" font-family="Open Sans" y="26.24" font-size="16pt" fill="#f5b720" font-weight="bold" transform="matrix(0.707 0.409 -0.707 0.409 0 0)" xml:space="preserve"><tspan x="8" dy="0">DynamoDB</tspan></text><text font-family="Open Sans" y="26.24" font-size="16pt" fill="#f5b720" font-weight="bold" transform="matrix(0.707 0.409 -0.707 0.409 0 0)" xml:space="preserve"><tspan x="8" dy="0">DynamoDB</tspan></text></svg></g></g><g opacity="1"><g id="b7e1548d-7979-4ab3-b4d9-c36ff5ba8659" transform="translate(0 0)"><svg x="48" y="268" overflow="visible" style="user-select:none"><text stroke="#ffffff" stroke-width="4" font-family="Open Sans" y="26.24" font-size="16pt" fill="#f5b720" font-weight="bold" transform="matrix(0.707 0.409 -0.707 0.409 0 0)" xml:space="preserve"><tspan x="8" dy="0">Cognito</tspan><tspan x="8" dy="1.1em">UserPool</tspan></text><text font-family="Open Sans" y="26.24" font-size="16pt" fill="#f5b720" font-weight="bold" transform="matrix(0.707 0.409 -0.707 0.409 0 0)" xml:space="preserve"><tspan x="8" dy="0">Cognito</tspan><tspan x="8" dy="1.1em">UserPool</tspan></text></svg></g></g><g opacity="1"><g id="d3bdda5e-5d67-4f47-b7b6-3af2a1442129" transform="translate(0 0)"><svg x="416" y="481" overflow="visible" style="user-select:none"><text stroke="#ffffff" stroke-width="4" font-family="Open Sans" y="26.24" font-size="16pt" fill="#f5b720" font-weight="bold" transform="matrix(0.707 0.409 -0.707 0.409 0 0)" xml:space="preserve"><tspan x="8" dy="0">Iot Device</tspan><tspan x="8" dy="1.1em">Attributes</tspan></text><text font-family="Open Sans" y="26.24" font-size="16pt" fill="#f5b720" font-weight="bold" transform="matrix(0.707 0.409 -0.707 0.409 0 0)" xml:space="preserve"><tspan x="8" dy="0">Iot Device</tspan><tspan x="8" dy="1.1em">Attributes</tspan></text></svg></g></g><g opacity="1"><g id="2512e32a-c362-4227-8412-13432fcd81a5" transform="translate(0 0)"><svg x="-208" y="768" overflow="visible" style="user-select:none"><text stroke="#ffffff" stroke-width="4" font-family="Open Sans" y="26.24" font-size="16pt" fill="#f5b720" font-weight="bold" transform="matrix(0.707 0.409 -0.707 0.409 0 0)" xml:space="preserve"><tspan x="8" dy="0">ACM SSL</tspan><tspan x="8" dy="1.1em">Certificate</tspan></text><text font-family="Open Sans" y="26.24" font-size="16pt" fill="#f5b720" font-weight="bold" transform="matrix(0.707 0.409 -0.707 0.409 0 0)" xml:space="preserve"><tspan x="8" dy="0">ACM SSL</tspan><tspan x="8" dy="1.1em">Certificate</tspan></text></svg></g></g><g opacity="1"><g id="53e78f15-69a5-4cca-b35a-bc0125a0ac41" transform="translate(0 0)"><svg x="-576" y="592" overflow="visible" style="user-select:none"><text stroke="#ffffff" stroke-width="4" font-family="Open Sans" y="26.24" font-size="16pt" fill="#f5b720" font-weight="bold" transform="matrix(0.707 -0.409 0.707 0.409 0 0)" xml:space="preserve"><tspan x="8" dy="0">Custom DNS</tspan><tspan x="8" dy="1.1em">&lt;service&gt;.&lt;env&gt;.fathomai.com</tspan></text><text font-family="Open Sans" y="26.24" font-size="16pt" fill="#f5b720" font-weight="bold" transform="matrix(0.707 -0.409 0.707 0.409 0 0)" xml:space="preserve"><tspan x="8" dy="0">Custom DNS</tspan><tspan x="8" dy="1.1em">&lt;service&gt;.&lt;env&gt;.fathomai.com</tspan></text></svg></g></g><g opacity="1"><g id="4915af26-aee8-4487-a743-929dc6cd79fe" transform="translate(0 0)"><svg x="-208" y="416" overflow="visible" style="user-select:none"><text stroke="#ffffff" stroke-width="4" font-family="Open Sans" y="26.24" font-size="16pt" fill="#f5b720" font-weight="bold" transform="matrix(0.707 0.409 -0.707 0.409 0 0)" xml:space="preserve"><tspan x="8" dy="0">Bespoke </tspan><tspan x="8" dy="1.1em">IAM Role</tspan></text><text font-family="Open Sans" y="26.24" font-size="16pt" fill="#f5b720" font-weight="bold" transform="matrix(0.707 0.409 -0.707 0.409 0 0)" xml:space="preserve"><tspan x="8" dy="0">Bespoke </tspan><tspan x="8" dy="1.1em">IAM Role</tspan></text></svg></g></g></g></g></svg>